<svg version="1.1" xmlns="http://www.w3.org/2000/svg" viewBox="0 0 172 172">
    <defs>
        <linearGradient x1="21.85833" y1="130.79167" x2="42.7635" y2="130.79167" gradientUnits="userSpaceOnUse"
                        id="color-1">
            <stop offset="0" stop-color="#5059c9"></stop>
            <stop offset="0.999" stop-color="#4750b3"></stop>
        </linearGradient>
        <linearGradient x1="82.80008" y1="107.5" x2="100.07175" y2="107.5" gradientUnits="userSpaceOnUse" id="color-2">
            <stop offset="0" stop-color="#5059c9"></stop>
            <stop offset="0.999" stop-color="#4750b3"></stop>
        </linearGradient>
        <linearGradient x1="64.85833" y1="48.375" x2="85.7635" y2="48.375" gradientUnits="userSpaceOnUse" id="color-3">
            <stop offset="0" stop-color="#5059c9"></stop>
            <stop offset="0.999" stop-color="#4750b3"></stop>
        </linearGradient>
        <linearGradient x1="129.35833" y1="94.95833" x2="150.2635" y2="94.95833" gradientUnits="userSpaceOnUse"
                        id="color-4">
            <stop offset="0" stop-color="#5059c9"></stop>
            <stop offset="0.999" stop-color="#4750b3"></stop>
        </linearGradient>
        <linearGradient x1="111.45242" y1="117.218" x2="125.41667" y2="117.218" gradientUnits="userSpaceOnUse"
                        id="color-5">
            <stop offset="0" stop-color="#5059c9"></stop>
            <stop offset="0.999" stop-color="#4750b3"></stop>
        </linearGradient>
        <linearGradient x1="32.61908" y1="48.375" x2="45.03175" y2="48.375" gradientUnits="userSpaceOnUse" id="color-6">
            <stop offset="0" stop-color="#5059c9"></stop>
            <stop offset="0.999" stop-color="#4750b3"></stop>
        </linearGradient>
    </defs>
    <g fill="none" fill-rule="nonzero" stroke="none" stroke-width="1" stroke-linecap="butt" stroke-linejoin="miter"
       stroke-miterlimit="10" stroke-dasharray="" stroke-dashoffset="0" font-family="none" font-weight="none"
       font-size="none" text-anchor="none" style="mix-blend-mode: normal">
        <path d="M0,172v-172h172v172z" fill="none"></path>
        <g id="Layer_1">
            <path d="M26.51667,139.03333l-4.3,-7.16667c-0.35833,-0.71667 -0.35833,-1.43333 0,-1.79167l4.3,-7.16667c0.35833,-0.71667 0.71667,-1.075 1.43333,-1.075h8.6c0.71667,0 1.075,0.35833 1.43333,0.71667l4.3,7.16667c0.35833,0.71667 0.35833,1.43333 0,1.79167l-4.3,7.16667c-0.35833,0.71667 -1.075,0.71667 -1.43333,0.71667h-8.6c-0.71667,0.35833 -1.075,0 -1.43333,-0.35833z"
                  fill="url(#color-1)"></path>
            <path d="M37.98333,85.28333l-5.375,-8.95833c-0.35833,-0.71667 -0.35833,-1.075 0,-1.79167l5.375,-8.95833c0.35833,-0.71667 1.075,-0.71667 1.43333,-0.71667h10.75c0.71667,0 1.075,0.35833 1.43333,0.71667l5.375,8.95833c0.35833,0.71667 0.35833,1.075 0,1.79167l-5.375,8.95833c-0.35833,0.35833 -0.71667,0.71667 -1.43333,0.71667h-10.39167c-0.71667,0 -1.43333,-0.35833 -1.79167,-0.71667z"
                  fill="#0365b6"></path>
            <path d="M77.4,149.78333l-5.375,-8.95833c-0.35833,-0.71667 -0.35833,-1.075 0,-1.79167l5.375,-8.95833c0.35833,-0.71667 1.075,-0.71667 1.43333,-0.71667h10.75c0.71667,0 1.075,0.35833 1.43333,0.71667l5.375,8.95833c0.35833,0.71667 0.35833,1.075 0,1.79167l-5.375,8.95833c-0.35833,0.35833 -0.71667,0.71667 -1.43333,0.71667h-10.39167c-0.71667,0 -1.43333,-0.35833 -1.79167,-0.71667z"
                  fill="#0365b6"></path>
            <path d="M101.76667,81.34167l-7.88333,-14.33333c-0.35833,-0.71667 -0.35833,-1.075 0,-1.79167l7.88333,-14.33333c0.35833,-0.71667 1.075,-1.075 1.43333,-1.075h15.76667c0.71667,0 1.075,0.35833 1.43333,1.075l7.88333,14.33333c0.35833,0.71667 0.35833,1.075 0,1.79167l-7.88333,14.33333c-0.35833,0.71667 -1.075,1.075 -1.43333,1.075h-15.76667c-0.71667,0 -1.075,-0.35833 -1.43333,-1.075z"
                  fill="#0365b6"></path>
            <path d="M86.35833,113.95l-3.225,-5.375c-0.35833,-0.71667 -0.35833,-1.43333 0,-1.79167l3.225,-5.375c0.35833,-0.35833 1.075,-0.71667 1.43333,-0.71667h6.80833c0.71667,0 1.075,0.35833 1.43333,0.71667l3.225,5.375c0.35833,0.71667 0.35833,1.43333 0,1.79167l-3.225,5.375c-0.35833,0.35833 -1.075,0.71667 -1.43333,0.71667h-6.80833c-0.35833,0 -1.075,-0.35833 -1.43333,-0.71667z"
                  fill="url(#color-2)"></path>
            <path d="M69.51667,56.61667l-4.3,-7.16667c-0.35833,-0.71667 -0.35833,-1.43333 0,-1.79167l4.3,-7.16667c0.35833,-0.71667 1.075,-0.71667 1.43333,-0.71667h8.6c0.71667,0 1.075,0.35833 1.43333,0.71667l4.3,7.16667c0.35833,0.71667 0.35833,1.43333 0,1.79167l-4.3,7.16667c-0.35833,0.71667 -1.075,0.71667 -1.43333,0.71667h-8.6c-0.71667,0 -1.075,-0.35833 -1.43333,-0.71667z"
                  fill="url(#color-3)"></path>
            <path d="M134.01667,103.2l-4.3,-7.16667c-0.35833,-0.71667 -0.35833,-1.43333 0,-1.79167l4.3,-7.16667c0.35833,-0.71667 1.075,-0.71667 1.43333,-0.71667h8.6c0.71667,0 1.075,0.35833 1.43333,0.71667l4.3,7.16667c0.35833,0.71667 0.35833,1.43333 0,1.79167l-4.3,7.16667c-0.35833,0.71667 -1.075,0.71667 -1.43333,0.71667h-8.6c-0.71667,0 -1.075,-0.35833 -1.43333,-0.71667z"
                  fill="url(#color-4)"></path>
            <path d="M113.95,121.83333l-1.79167,-3.225c-0.71667,-1.075 -0.71667,-2.15 0,-3.225l1.79167,-3.225c0.71667,-1.075 1.43333,-1.43333 2.50833,-1.43333h3.94167c1.075,0 2.15,0.71667 2.50833,1.43333l1.79167,3.225c0.71667,1.075 0.71667,2.15 0,3.225l-1.43333,3.225c-0.71667,1.075 -1.43333,1.43333 -2.50833,1.43333h-3.94167c-1.43333,0 -2.50833,-0.35833 -2.86667,-1.43333z"
                  fill="url(#color-5)"></path>
            <path d="M34.75833,52.675l-1.79167,-3.225c-0.35833,-0.71667 -0.35833,-1.43333 0,-2.15l1.79167,-3.225c0.35833,-0.71667 1.075,-1.075 2.15,-1.075h4.3c0.71667,0 1.43333,0.35833 1.79167,1.075l1.79167,3.225c0.35833,0.71667 0.35833,1.43333 0,2.15l-1.79167,3.225c-0.35833,0.71667 -1.075,1.075 -1.79167,1.075h-4.3c-1.075,0 -1.79167,-0.35833 -2.15,-1.075z"
                  fill="url(#color-6)"></path>
            <path d="M38.34167,122.55c-0.35833,-0.71667 -1.075,-0.71667 -1.43333,-0.71667h-6.09167l6.45,10.75c0.71667,1.075 1.79167,2.15 2.86667,2.86667l2.15,-3.58333c0.35833,-0.71667 0.35833,-1.43333 0,-1.79167z"
                  fill="#000000" opacity="0.05"></path>
            <path d="M38.34167,122.55c-0.35833,-0.71667 -1.075,-0.71667 -1.43333,-0.71667h-3.58333l5.73333,10.03333c0.71667,1.075 1.43333,1.79167 2.50833,2.15l1.43333,-2.15c0.35833,-0.71667 0.35833,-1.43333 0,-1.79167z"
                  fill="#000000" opacity="0.07"></path>
            <path d="M40.49167,130.79167l-10.39167,-17.91667c-0.71667,-1.075 -0.71667,-2.50833 0,-3.58333l10.39167,-17.91667c0.71667,-1.075 1.79167,-1.79167 3.225,-1.79167h20.78333c1.43333,0 2.50833,0.71667 3.225,1.79167l10.39167,17.91667c0.71667,1.075 0.71667,2.50833 0,3.58333l-10.39167,17.91667c-0.71667,1.075 -1.79167,1.79167 -3.225,1.79167h-20.78333c-1.43333,0 -2.86667,-0.71667 -3.225,-1.79167z"
                  fill="#50e6ff"></path>
            <path d="M120.75833,51.24167c-0.35833,-0.71667 -1.075,-1.075 -1.43333,-1.075h-14.33333l5.73333,10.75c1.43333,2.15 3.58333,3.58333 6.45,3.58333h11.10833z"
                  fill="#000000" opacity="0.05"></path>
            <path d="M120.75833,51.24167c-0.35833,-0.71667 -1.075,-1.075 -1.43333,-1.075h-12.18333l5.375,9.675c1.075,1.79167 2.86667,2.86667 4.65833,2.86667h10.03333z"
                  fill="#000000" opacity="0.07"></path>
            <path d="M113.59167,59.125l-8.95833,-16.125c-0.71667,-1.075 -0.71667,-2.50833 0,-3.58333l8.95833,-16.125c0.71667,-1.075 1.79167,-1.79167 3.225,-1.79167h20.78333c1.43333,0 2.50833,0.71667 3.225,1.79167l8.95833,16.125c0.71667,1.075 0.71667,2.50833 0,3.58333l-8.95833,16.125c-0.71667,1.075 -1.79167,1.79167 -3.225,1.79167h-20.78333c-1.43333,0 -2.50833,-0.71667 -3.225,-1.79167z"
                  fill="#50e6ff"></path>
        </g>
    </g>
</svg>